/vscmnt/brussel_pixiu_data/_data_brussel/112/vsc11236/PredSimResults/SUBJ07mtu3D/worker8.mot
version=1
nRows=9
nColumns=50
inDegrees=yes
endheader
                time	         pelvis_tilt	         pelvis_list	     pelvis_rotation	           pelvis_tx	           pelvis_ty	           pelvis_tz	       hip_flexion_r	     hip_adduction_r	      hip_rotation_r	        knee_angle_r	       ankle_angle_r	         mtp_angle_r	       hip_flexion_l	     hip_adduction_l	      hip_rotation_l	        knee_angle_l	       ankle_angle_l	         mtp_angle_l	    lumbar_extension	      lumbar_bending	     lumbar_rotation	 ercspn_r/activation	 intobl_r/activation	 extobl_r/activation	    abd_r/activation	    add_r/activation	hamstrings_r/activation	bifemsh_r/activation	glut_max_r/activation	iliopsoas_r/activation	rect_fem_r/activation	  vasti_r/activation	gastroc_r/activation	 soleus_r/activation	tib_ant_r/activation	 ercspn_l/activation	 intobl_l/activation	 extobl_l/activation	    abd_l/activation	    add_l/activation	hamstrings_l/activation	bifemsh_l/activation	glut_max_l/activation	iliopsoas_l/activation	rect_fem_l/activation	  vasti_l/activation	gastroc_l/activation	 soleus_l/activation	tib_ant_l/activation	
          1.65429730	         -4.39429648	          0.32858015	         -7.77604209	          2.01824271	          0.84941973	          0.01255955	        -14.01925270	         -0.10587323	          3.78430052	         -9.21753985	          8.20124302	         27.67437022	         30.13568072	         -2.02889287	         -3.96355472	         -6.58264315	          3.61167225	          0.26752439	         -9.72143588	          1.38426774	          1.52849766	          0.12280693	          0.01000015	          0.01000016	          0.03258180	          0.01000193	          0.01776388	          0.13777728	          0.01659037	          0.12506085	          0.01183824	          0.01000237	          0.13121262	          0.28226612	          0.01814207	          0.12040127	          0.13023061	          0.01000071	          0.01370702	          0.13709217	          0.06389888	          0.09654261	          0.08115207	          0.02605509	          0.01183800	          0.01000023	          0.01000039	          0.01000016	          0.37719633	
          1.66532595	         -4.39681098	          0.30315180	         -7.80499793	          2.03398464	          0.84792338	          0.01219939	        -14.48469226	         -0.19592108	          3.46854095	        -10.25683331	          7.25873029	         29.22601694	         29.87618475	         -1.81511302	         -3.63133122	         -7.98567727	          3.28638811	          0.25080902	         -9.60678150	          0.99256258	          1.74068377	          0.13570658	          0.01000006	          0.01000077	          0.02752282	          0.02460366	          0.01503749	          0.11638475	          0.01401443	          0.10564377	          0.01000055	          0.01000011	          0.11083920	          0.26420971	          0.01532515	          0.10170663	          0.11463209	          0.01000016	          0.01158190	          0.11580596	          0.06324278	          0.10993772	          0.12977900	          0.02200953	          0.01000037	          0.01000015	          0.01521695	          0.01183822	          0.41002301	
          1.67635460	         -4.39348156	          0.27215436	         -7.78685742	          2.04987433	          0.84662564	          0.01175500	        -14.80876168	         -0.26792993	          3.11320236	        -11.56777104	          6.20724278	         30.71584892	         29.54284981	         -1.65505077	         -3.32234795	         -9.30010479	          2.86911379	          0.24709276	         -9.48610608	          0.60638476	          1.94329727	          0.14930006	          0.01000005	          0.01000017	          0.02324934	          0.02078367	          0.01342192	          0.09831380	          0.01183851	          0.08924110	          0.01000190	          0.01000035	          0.09362917	          0.24227431	          0.01294561	          0.13586251	          0.09683318	          0.01000019	          0.09852271	          0.13364147	          0.05959315	          0.10287251	          0.12910785	          0.01859214	          0.01000016	          0.01000003	          0.01285425	          0.01000012	          0.47268763	
          1.68738325	         -4.38594398	          0.21960548	         -7.72621833	          2.06572268	          0.84569409	          0.01121885	        -14.90956710	         -0.30474375	          2.73316650	        -13.26373687	          5.02271848	         32.08706554	         29.21667354	         -1.51559084	         -3.06892270	        -10.60684555	          2.39642413	          0.22831386	         -9.37976499	          0.24374767	          2.13530523	          0.18419759	          0.01000006	          0.01000019	          0.01963941	          0.02661916	          0.01499023	          0.08304874	          0.01000068	          0.07538500	          0.01000144	          0.01000042	          0.07909134	          0.21122123	          0.01093555	          0.14399389	          0.08179788	          0.01000016	          0.14393283	          0.16006505	          0.05235812	          0.08689969	          0.15328584	          0.01570536	          0.01000029	          0.01000016	          0.01085846	          0.01000010	          0.49965895	
          1.69841189	         -4.37427538	          0.15379791	         -7.62822108	          2.08139664	          0.84525903	          0.01059922	        -14.71454379	         -0.31494693	          2.33202721	        -15.44982911	          3.72442943	         33.19564203	         28.95420969	         -1.38307732	         -2.85006894	        -12.05084462	          2.14090894	          0.20947291	         -9.29558950	         -0.10304778	          2.31514304	          0.21909738	          0.01000006	          0.01000019	          0.01659000	          0.04904462	          0.01578494	          0.07015390	          0.01000016	          0.06368022	          0.01000070	          0.01000015	          0.06681080	          0.17842486	          0.01000004	          0.15205363	          0.06909711	          0.01000014	          0.18207051	          0.18435729	          0.04901568	          0.07340694	          0.17467201	          0.01326682	          0.01000032	          0.02472701	          0.01000031	          0.01000019	          0.50175956	
          1.70944054	         -4.35962284	          0.07737768	         -7.49362064	          2.09679958	          0.84544088	          0.00991218	        -14.15627402	         -0.30076380	          1.89845908	        -18.22088396	          2.32960417	         33.83293093	         28.73751123	         -1.25739501	         -2.66824988	        -13.58547747	          2.13109906	          0.19064959	         -9.23636832	         -0.43496086	          2.47977803	          0.24292589	          0.01000006	          0.01000019	          0.01401407	          0.08032506	          0.01663094	          0.05926128	          0.01000009	          0.05379274	          0.01000053	          0.01000009	          0.05643707	          0.15072077	          0.01000005	          0.15714019	          0.05836839	          0.01000012	          0.20231175	          0.20654238	          0.04830334	          0.06200926	          0.18304171	          0.01120695	          0.01000033	          0.05100608	          0.01000049	          0.01000018	          0.48230304	
          1.72046919	         -4.34336482	         -0.00934114	         -7.32233150	          2.11190555	          0.84628611	          0.00917809	        -13.19232139	         -0.26682492	          1.43040938	        -21.62382559	          0.80197706	         33.83572402	         28.48937485	         -1.13553356	         -2.51472513	        -15.05964362	          2.34663465	          0.17592504	         -9.19700855	         -0.75112736	          2.62555654	          0.25038576	          0.01000006	          0.01000022	          0.01183811	          0.10556735	          0.01686135	          0.05006004	          0.01000007	          0.04544044	          0.01000040	          0.01000005	          0.04767407	          0.12731830	          0.01000004	          0.15377697	          0.04930552	          0.01000012	          0.20662006	          0.21818607	          0.04840892	          0.05238136	          0.18300733	          0.01000020	          0.01000029	          0.07003527	          0.01000042	          0.01000013	          0.44766700	
          1.73149784	         -4.32679949	         -0.10305596	         -7.11473571	          2.12672224	          0.84773898	          0.00840828	        -11.81665727	         -0.22481740	          0.94993772	        -25.60994605	         -1.01025406	         33.20840210	         28.14151219	         -1.01063873	         -2.37034701	        -16.33982473	          2.74325465	          0.17324037	         -9.17107630	         -1.05320943	          2.74955741	          0.25637825	          0.01000005	          0.01000016	          0.01000004	          0.12321849	          0.01461992	          0.04228760	          0.01000005	          0.03838497	          0.01000033	          0.01000002	          0.04027170	          0.10754954	          0.01000005	          0.12990060	          0.04164985	          0.01000011	          0.19922400	          0.21858765	          0.05325865	          0.04424850	          0.17169268	          0.01000031	          0.01000037	          0.09374925	          0.01000038	          0.01000012	          0.40201085	
          1.74252649	         -4.31161276	         -0.20014822	         -6.87112707	          2.14124265	          0.84969587	          0.00759967	        -10.05499054	         -0.18329702	          0.49407902	        -30.06577617	         -3.16952742	         31.82725969	         27.64699205	         -0.87461273	         -2.20549709	        -17.32456015	          3.25957224	          0.20085049	         -9.15779331	         -1.34019857	          2.85193750	          0.25020987	          0.01000006	          0.01000019	          0.01000002	          0.13488285	          0.01236497	          0.03572185	          0.01000006	          0.03242498	          0.01000019	          0.01000002	          0.03401871	          0.09085028	          0.03980260	          0.10973092	          0.03518287	          0.01000013	          0.20079540	          0.20497035	          0.06279898	          0.03737852	          0.14503493	          0.01000022	          0.01000025	          0.11921027	          0.01000043	          0.01000011	          0.35672950	
